<svg width="46" height="46" viewBox="0 0 46 46" fill="none" xmlns="http://www.w3.org/2000/svg">
<path d="M24.408 31.3333C22.0414 31.3328 19.743 30.5406 17.8787 29.0827L12.0174 34.944C10.8614 35.3334 9.58135 34.5334 10.132 33.0587L15.9934 27.1973C14.5347 25.3329 13.7419 23.0339 13.7414 20.6667C13.7414 14.7853 18.5267 10 24.408 10C30.2894 10 35.0747 14.7853 35.0747 20.6667C35.0747 26.548 30.2894 31.3333 24.408 31.3333ZM24.408 12.6667C19.996 12.6667 16.408 16.2547 16.408 20.6667C16.408 25.0787 19.996 28.6667 24.408 28.6667C28.82 28.6667 32.408 25.0787 32.408 20.6667C32.408 16.2547 28.82 12.6667 24.408 12.6667Z" fill="#868686"/>
</svg>
